<svg xmlns="http://www.w3.org/2000/svg" viewBox="0 0 390 844">
  <defs>
    <linearGradient id="bg2" x1="0" y1="0" x2="0" y2="1">
      <stop offset="0%" stop-color="#102b54"/>
      <stop offset="100%" stop-color="#0c1e3c"/>
    </linearGradient>
  </defs>
  <rect width="390" height="844" rx="48" fill="url(#bg2)"/>
  <rect x="20" y="20" width="350" height="804" rx="34" fill="none" stroke="rgba(255,255,255,0.06)"/>

  <text x="40" y="100" font-family="Inter, sans-serif" font-size="13" letter-spacing="3" fill="#c9a447" font-weight="700">EVENING PULSE</text>
  <text x="40" y="142" font-family="Space Grotesk, sans-serif" font-size="30" fill="#ffffff" font-weight="700">Score what slipped.</text>
  <text x="40" y="172" font-family="Inter, sans-serif" font-size="14" fill="rgba(255,255,255,0.65)">None = 0 · 1–2 = 1 · 3+ = 3</text>

  <g font-family="Inter, sans-serif" font-size="14" fill="#ffffff">
    <rect x="30" y="210" width="330" height="68" rx="14" fill="#102b54" stroke="rgba(255,255,255,0.06)"/>
    <text x="50" y="248" font-weight="600">Lead response</text>
    <circle cx="320" cy="244" r="20" fill="rgba(201,164,71,0.18)" stroke="#c9a447"/>
    <text x="320" y="250" font-size="15" fill="#c9a447" font-weight="700" text-anchor="middle">1</text>

    <rect x="30" y="288" width="330" height="68" rx="14" fill="#102b54" stroke="rgba(255,255,255,0.06)"/>
    <text x="50" y="326" font-weight="600">Quote follow-up</text>
    <circle cx="320" cy="322" r="20" fill="rgba(201,164,71,0.32)" stroke="#c9a447"/>
    <text x="320" y="328" font-size="15" fill="#c9a447" font-weight="700" text-anchor="middle">3</text>

    <rect x="30" y="366" width="330" height="68" rx="14" fill="#102b54" stroke="rgba(255,255,255,0.06)"/>
    <text x="50" y="404" font-weight="600">Past clients</text>
    <circle cx="320" cy="400" r="20" fill="rgba(255,255,255,0.06)" stroke="rgba(255,255,255,0.25)"/>
    <text x="320" y="406" font-size="15" fill="rgba(255,255,255,0.7)" font-weight="700" text-anchor="middle">0</text>

    <rect x="30" y="444" width="330" height="68" rx="14" fill="#102b54" stroke="rgba(255,255,255,0.06)"/>
    <text x="50" y="482" font-weight="600">Review requests</text>
    <circle cx="320" cy="478" r="20" fill="rgba(201,164,71,0.18)" stroke="#c9a447"/>
    <text x="320" y="484" font-size="15" fill="#c9a447" font-weight="700" text-anchor="middle">1</text>

    <rect x="30" y="522" width="330" height="68" rx="14" fill="#102b54" stroke="rgba(255,255,255,0.06)"/>
    <text x="50" y="560" font-weight="600">Owner bottlenecks</text>
    <circle cx="320" cy="556" r="20" fill="rgba(255,255,255,0.06)" stroke="rgba(255,255,255,0.25)"/>
    <text x="320" y="562" font-size="15" fill="rgba(255,255,255,0.7)" font-weight="700" text-anchor="middle">0</text>
  </g>

  <rect x="30" y="620" width="330" height="86" rx="14" fill="rgba(201,164,71,0.08)" stroke="rgba(201,164,71,0.3)"/>
  <text x="50" y="652" font-family="Inter, sans-serif" font-size="12" letter-spacing="2" fill="rgba(255,255,255,0.55)" font-weight="600">TODAY'S PULSE</text>
  <text x="50" y="688" font-family="Space Grotesk, sans-serif" font-size="32" fill="#c9a447" font-weight="700">10 / 15</text>
  <text x="340" y="688" font-family="Inter, sans-serif" font-size="13" fill="rgba(255,255,255,0.6)" text-anchor="end">Lower gaps · higher pulse</text>

  <rect x="30" y="724" width="330" height="56" rx="12" fill="#c9a447"/>
  <text x="195" y="758" font-family="Inter, sans-serif" font-size="14" fill="#0c1e3c" font-weight="700" text-anchor="middle" letter-spacing="1.5">SAVE EVENING PULSE</text>
</svg>
